<svg id="exportSVG" visibility="visible" xmlns="http://www.w3.org/2000/svg" xmlns:xlink="http://www.w3.org/1999/xlink" version="1.1" data-info="draw.ninja" data-name="nomal" viewBox="0 0 1000 700" width="1000" height="700" style="position: fixed; top: 0px; left: 0px;"><defs id="defsExport"><filter id="filter0"><feGaussianBlur stdDeviation="0"></feGaussianBlur></filter><pattern id="patternImage" patternUnits="userSpaceOnUse" x="0" y="0" width="1" height="1" data-x="0" data-y="0" data-width="1" data-height="1" data-multx="1" data-multy="1" patternTransform="matrix(1,0,0,1,0,0)" data-transs="0" data-transf="0" data-source="patternImage" data-draw="1" fill="#4D4D4D" fill-opacity="1"></pattern><pattern id="pattern0" patternUnits="userSpaceOnUse" x="0" y="0" width="10" height="10" data-x="0" data-y="0" data-width="10" data-height="10" data-multx="1" data-multy="1" stroke="none" patternTransform="matrix(1,0,0,1,0,0)" data-transs="0" data-transf="0" data-source="Pattern 0" data-draw="1" fill="#4D4D4D" fill-opacity="1"><path transform="matrix(1,0,0,1,0,0)" d="M0 0 L5 0 L5 5 L0 5 L0 0 Z"></path></pattern><pattern id="pattern1" patternUnits="userSpaceOnUse" x="0" y="0" width="10" height="10" data-x="0" data-y="0" data-width="10" data-height="10" data-multx="1" data-multy="1" stroke="none" patternTransform="matrix(1,0,0,1,0,0)" data-transs="0" data-transf="0" data-source="Pattern 1" data-draw="1" fill="#4D4D4D" fill-opacity="1"><path transform="matrix(1,0,0,1,0,0)" d="M0 5 L5 0 L10 5 L5 10 L0 5 Z"></path></pattern><pattern id="pattern2" patternUnits="userSpaceOnUse" x="0" y="0" width="10" height="10" data-x="0" data-y="0" data-width="10" data-height="10" data-multx="1" data-multy="1" stroke="none" patternTransform="matrix(1,0,0,1,0,0)" data-transs="0" data-transf="0" data-source="Pattern 2" data-draw="1" fill="#4D4D4D" fill-opacity="1"><path transform="matrix(1,0,0,1,0,0)" d="M0 9 L5 1 L10 9 L0 9 Z"></path></pattern><pattern id="pattern3" patternUnits="userSpaceOnUse" x="0" y="0" width="10" height="10" data-x="0" data-y="0" data-width="10" data-height="10" data-multx="1" data-multy="1" stroke="none" patternTransform="matrix(1,0,0,1,0,0)" data-transs="0" data-transf="0" data-source="Pattern 3" data-draw="1" fill="#4D4D4D" fill-opacity="1"><path transform="matrix(1,0,0,1,0,0)" d="M0 5 C0 2.25 2.25 0 5 0 C7.75 0 10 2.25 10 5 C10 7.75 7.75 10 5 10 C2.25 10 0 7.75 0 5 Z"></path></pattern><pattern id="pattern4" patternUnits="userSpaceOnUse" x="0" y="0" width="10" height="10" data-x="0" data-y="0" data-width="10" data-height="10" data-multx="1" data-multy="1" stroke="none" patternTransform="matrix(1,0,0,1,0,0)" data-transs="0" data-transf="0" data-source="Pattern 4" data-draw="1" fill="#4D4D4D" fill-opacity="1"><path transform="matrix(1,0,0,1,0,0)" d="M0 5 L4 4 L5 0 L6 4 L10 5 L6 6 L5 10 L4 6 L0 5 Z"></path></pattern><pattern id="pattern5" patternUnits="userSpaceOnUse" x="0" y="0" width="10" height="10" data-x="0" data-y="0" data-width="10" data-height="10" data-multx="1" data-multy="1" stroke="none" patternTransform="matrix(1,0,0,1,0,0)" data-transs="0" data-transf="0" data-source="Pattern 5" data-draw="1" fill="#4D4D4D" fill-opacity="1"><path transform="matrix(1,0,0,1,0,0)" d="M5 10 C-5 2.75 3 -1.75 5 1 C7 -1.75 15 2.75 5 10 Z"></path></pattern><pattern id="pattern6" patternUnits="userSpaceOnUse" x="0" y="0" width="10" height="10" data-x="0" data-y="0" data-width="10" data-height="10" data-multx="1" data-multy="1" stroke="none" patternTransform="matrix(1,0,0,1,0,0)" data-transs="0" data-transf="0" data-source="Pattern 6" data-draw="1" fill="#4D4D4D" fill-opacity="1"><path transform="matrix(1,0,0,1,0,0)" d="M3 0 L7 0 L7 10 L3 10 L3 0 Z"></path></pattern><pattern id="pattern7" patternUnits="userSpaceOnUse" x="0" y="0" width="10" height="10" data-x="0" data-y="0" data-width="10" data-height="10" data-multx="1" data-multy="1" stroke="none" patternTransform="matrix(1,0,0,1,0,0)" data-transs="0" data-transf="0" data-source="Pattern 7" data-draw="1" fill="#4D4D4D" fill-opacity="1"><path transform="matrix(1,0,0,1,0,0)" d="M10 3 L10 7 L0 7 L0 3 L10 3 Z"></path></pattern><pattern id="pattern8" patternUnits="userSpaceOnUse" x="0" y="0" width="10" height="10" data-x="0" data-y="0" data-width="10" data-height="10" data-multx="1" data-multy="1" stroke="none" patternTransform="matrix(1,0,0,1,0,0)" data-transs="0" data-transf="0" data-source="Pattern 8" data-draw="1" fill="#4D4D4D" fill-opacity="1"><path transform="matrix(1,0,0,1,0,0)" d="M0 10 L3 3 L10 0 L7 7 L0 10 Z"></path></pattern><pattern id="pattern9" patternUnits="userSpaceOnUse" x="0" y="0" width="10" height="10" data-x="0" data-y="0" data-width="10" data-height="10" data-multx="1" data-multy="1" stroke="none" patternTransform="matrix(1,0,0,1,0,0)" data-transs="0" data-transf="0" data-source="Pattern 9" data-draw="1" fill="#4D4D4D" fill-opacity="1"><path transform="matrix(1,0,0,1,0,0)" d="M0 4 L10 4 L10 6 L0 6 L0 4 Z M4 10 L4 0 L6 0 L6 10 L4 10 Z"></path></pattern><linearGradient id="linearSystem" gradientUnits="objectBoundingBox" x1="0%" y1="50%" x2="100%" y2="50%" spreadMethod="pad"><stop offset="50%" stop-color="#D0D0D0" stop-opacity="1"></stop><stop offset="100%" stop-color="transparent" stop-opacity="1"></stop></linearGradient><linearGradient id="linearSystem1" gradientUnits="objectBoundingBox" x1="0%" y1="50%" x2="100%" y2="50%" spreadMethod="pad"><stop offset="30%" stop-color="#D0D0D0" stop-opacity="1"></stop><stop offset="100%" stop-color="transparent" stop-opacity="1"></stop></linearGradient><linearGradient id="linearSystem2" gradientUnits="objectBoundingBox" x1="0%" y1="50%" x2="50%" y2="50%" spreadMethod="repeat"><stop offset="30%" stop-color="#D0D0D0" stop-opacity="1"></stop><stop offset="100%" stop-color="transparent" stop-opacity="1"></stop></linearGradient><linearGradient id="linearSystem3" gradientUnits="objectBoundingBox" x1="0%" y1="50%" x2="50%" y2="50%" spreadMethod="reflect"><stop offset="30%" stop-color="#D0D0D0" stop-opacity="1"></stop><stop offset="100%" stop-color="transparent" stop-opacity="1"></stop></linearGradient><radialGradient id="radialSystem" gradientUnits="objectBoundingBox" r="0.5" cx="0.5" fx="0.5" cy="0.5" fy="0.5" spreadMethod="pad"><stop offset="50%" stop-color="#D0D0D0" stop-opacity="1"></stop><stop offset="100%" stop-color="transparent" stop-opacity="1"></stop></radialGradient><pattern id="patternSystem" patternUnits="userSpaceOnUse" x="0" y="0" width="6" height="8"><path stroke="#D0D0D0" stroke-width="5" fill="none" d="M0 0 L0 10"></path></pattern><linearGradient id="linear0" gradientUnits="objectBoundingBox" x1="0%" y1="50%" x2="100%" y2="50%" spreadMethod="pad"><stop offset="0%" stop-color="#FF8000" stop-opacity="1"></stop><stop offset="100%" stop-color="#FFFF00" stop-opacity="1"></stop></linearGradient><linearGradient id="linear1" gradientUnits="objectBoundingBox" x1="0%" y1="50%" x2="100%" y2="50%" spreadMethod="pad"><stop offset="0%" stop-color="#FFFF00" stop-opacity="1"></stop><stop offset="100%" stop-color="#FF8000" stop-opacity="1"></stop></linearGradient><linearGradient id="linearImport" gradientUnits="objectBoundingBox" x1="0%" y1="50%" x2="100%" y2="50%" spreadMethod="pad"><stop offset="0%" stop-color="#FFFFFF" stop-opacity="0.1"></stop><stop offset="100%" stop-color="#000000" stop-opacity="0.1"></stop></linearGradient><radialGradient id="radial0" gradientUnits="objectBoundingBox" r="0.5" cx="0.5" fx="0.5" cy="0.5" fy="0.5" spreadMethod="pad"><stop offset="0%" stop-color="#FF8000" stop-opacity="1"></stop><stop offset="100%" stop-color="#FFFF00" stop-opacity="1"></stop></radialGradient><radialGradient id="radial1" gradientUnits="objectBoundingBox" r="0.5" cx="0.5" fx="0.5" cy="0.5" fy="0.5" spreadMethod="pad"><stop offset="0%" stop-color="#FFFF00" stop-opacity="1"></stop><stop offset="100%" stop-color="#FF8000" stop-opacity="1"></stop></radialGradient><radialGradient id="radialImport" gradientUnits="objectBoundingBox" r="0.5" cx="0.5" fx="0.5" cy="0.5" fy="0.5" spreadMethod="pad"><stop offset="0%" stop-color="#FFFFFF" stop-opacity="0.1"></stop><stop offset="100%" stop-color="#000000" stop-opacity="0.1"></stop></radialGradient></defs><rect id="pageExport" x="0" y="0" width="1000" height="700" fill="none" fill-opacity="0" stroke="none" stroke-width="0"></rect><g id="objectsExport" visibility="visible"><path id="path2" visibility="visible" stroke="#333333" stroke-width="2" stroke-opacity="1" stroke-linecap="round" stroke-linejoin="round" stroke-dasharray="none" marker-start="none" marker-end="none" fill="#333333" fill-rule="evenodd" fill-opacity="1" data-name="curve" data-title="curve" deg="357" data-sw="2" data-grad="0" data-group="0" data-edit="1" filter="none" d="M354.592 702.542 L356.013 691.453 L359.275 677.263 L362.694 666.068 L367.111 654.822 L370.53 643.627 L375.894 631.33 L382.152 616.983 L388.566 605.631 L394.981 594.28 L402.394 582.877 L406.812 571.63 L410.231 560.436 L410.654 549.398 L404.239 560.75 L393.725 570.313 L383.002 575.882 L372.279 581.451 L372.702 570.413 L378.118 559.115 L388.579 548.553 L400.039 537.938 L410.658 530.372 L421.12 519.81 L427.377 505.463 L435.789 494.007 L446.408 486.441 L458.077 479.821 L468.905 476.25 L479.942 476.672 L491.137 480.091 L502.069 478.517 L513.844 473.894 L524.724 471.321 L535.709 470.746 L548.796 472.063 L559.885 473.484 L571.027 475.904 L582.535 485.315 L594.148 496.723 L605.761 508.131 L612.329 518.802 L619.895 529.42 L631.351 537.832 L643.91 548.189 L654.472 558.651 L663.037 569.217 L652.157 571.79 L641.015 569.37 L629.663 562.955 L618.364 557.539 L606.804 547.13 L595.453 540.715 L602.02 551.386 L609.586 562.004 L621.147 572.414 L633.706 582.771 L645.214 592.181 L656.827 603.589 L668.388 613.998 L676.953 624.564 L686.568 636.077 L696.184 647.59 L702.751 658.26 L710.318 668.879 L716.885 679.55 L724.451 690.168 L725.027 701.153 " data-centerx="534" data-centery="591"></path><path id="path6" visibility="visible" stroke="#000000" stroke-width="2" stroke-opacity="1" stroke-linecap="round" stroke-linejoin="round" stroke-dasharray="none" marker-start="none" marker-end="none" fill="#333333" fill-rule="evenodd" fill-opacity="1" data-name="curve" data-title="curve" deg="0" data-sw="2" data-grad="0" data-group="0" data-edit="1" filter="none" d="M715 699 L714 688 L712 677 L710 663 L708 652 L706 641 L705 630 L704 619 L700 608 L693 597 L689 586 L687 575 L683 564 L680 553 L676 542 L673 531 L669 518 L667 507 L664 496 L659 484 L656 473 L652 460 L649 449 L640 437 L633 426 L627 414 L623 403 L612 399 L601 399 L596 410 L589 421 L584 432 L581 443 L575 454 L564 464 L560 475 " data-centerx="637.5" data-centery="549"></path><path id="path7" visibility="visible" stroke="#333333" stroke-width="2" stroke-opacity="1" stroke-linecap="round" stroke-linejoin="round" stroke-dasharray="none" marker-start="none" marker-end="none" fill="#333333" fill-rule="evenodd" fill-opacity="1" data-name="curve" data-title="curve" deg="0" data-sw="2" data-grad="0" data-group="0" data-edit="1" filter="none" d="M628 591 L607 585 L584 573 L568 562 L558 550 L553 539 L552 526 L566 517 L580 517 L595 517 L608 522 L622 530 L636 539 L643 550 L647 562 L647 573 L644 584 L633 589 " data-centerx="599.5" data-centery="554"></path><path id="path9" visibility="visible" stroke="#333333" stroke-width="2" stroke-opacity="1" stroke-linecap="round" stroke-linejoin="round" stroke-dasharray="none" marker-start="none" marker-end="none" fill="#333333" fill-rule="evenodd" fill-opacity="1" data-name="curve" data-title="curve" deg="0" data-sw="2" data-grad="0" data-group="0" data-edit="1" filter="none" d="M361 668 L361 657 L361 646 L361 635 L362 624 L364 612 L366 601 L369 589 L370 578 L371 567 L374 555 L376 544 L377 529 L378 516 L381 505 L384 491 L388 480 L393 469 L399 458 L406 447 L412 436 L415 425 L419 413 L430 405 L440 416 L448 427 L459 435 L462 446 L465 457 L466 468 L469 479 " data-centerx="415" data-centery="536.5"></path><path id="path12" visibility="visible" stroke="#000000" stroke-width="2" stroke-opacity="1" stroke-linecap="round" stroke-linejoin="round" stroke-dasharray="none" marker-start="none" marker-end="none" fill="#333333" fill-rule="evenodd" fill-opacity="1" data-name="curve" data-title="curve" deg="0" data-sw="2" data-grad="0" data-group="0" data-edit="1" filter="none" d="M361 623 L354 634 L347 645 L342 656 L340 667 L351 667 L362 665 L351 671 L340 671 L357 669 L379 664 L398 657 L409 655 " data-centerx="374.5" data-centery="647"></path><path id="path15" visibility="visible" stroke="#333333" stroke-width="2" stroke-opacity="1" stroke-linecap="round" stroke-linejoin="round" stroke-dasharray="none" marker-start="none" marker-end="none" fill="#333333" fill-rule="evenodd" fill-opacity="1" data-name="curve" data-title="curve" deg="0" data-sw="2" data-grad="0" data-group="0" data-edit="1" filter="none" d="M337 667 L348 658 L359 648 L371 641 L382 639 L395 639 L406 640 L417 643 L428 647 L434 658 L440 669 L451 663 L461 652 L470 639 " data-centerx="403.5" data-centery="654"></path><path id="path16" visibility="visible" stroke="#000000" stroke-width="2" stroke-opacity="1" stroke-linecap="round" stroke-linejoin="round" stroke-dasharray="none" marker-start="none" marker-end="none" fill="#333333" fill-rule="evenodd" fill-opacity="1" data-name="curve" data-title="curve" deg="0" data-sw="2" data-grad="0" data-group="0" data-edit="1" filter="none" d="M398 664 L411 661 L422 656 L411 648 L400 648 L389 647 L378 647 L367 653 L356 656 L345 661 L337 672 L351 672 L366 665 L395 650 L411 642 L422 636 " data-centerx="379.5" data-centery="654"></path><path id="path17" visibility="visible" stroke="#333333" stroke-width="2" stroke-opacity="1" stroke-linecap="round" stroke-linejoin="round" stroke-dasharray="none" marker-start="none" marker-end="none" fill="#333333" fill-rule="evenodd" fill-opacity="1" data-name="curve" data-title="curve" deg="0" data-sw="2" data-grad="0" data-group="0" data-edit="1" filter="none" d="M447 665 L447 654 L447 643 L443 632 L431 625 L420 625 L408 625 L396 627 L385 631 L374 635 L363 641 L352 648 L341 657 L340 668 L357 671 L368 665 L384 657 " data-centerx="393.5" data-centery="648"></path><path id="path19" visibility="visible" stroke="#333333" stroke-width="2" stroke-opacity="1" stroke-linecap="round" stroke-linejoin="round" stroke-dasharray="none" marker-start="none" marker-end="none" fill="#333333" fill-rule="evenodd" fill-opacity="1" data-name="curve" data-title="curve" deg="0" data-sw="2" data-grad="0" data-group="0" data-edit="1" filter="none" d="M372 673 L362 661 L361 650 L374 643 L385 641 L398 640 L412 640 L425 640 L436 641 L448 649 L456 660 L451 671 L439 676 L427 678 L416 679 L404 679 L393 679 L382 674 L371 670 " data-centerx="408.5" data-centery="659.5"></path><path id="path20" visibility="visible" stroke="#333333" stroke-width="2" stroke-opacity="1" stroke-linecap="round" stroke-linejoin="round" stroke-dasharray="none" marker-start="none" marker-end="none" fill="#333333" fill-rule="evenodd" fill-opacity="1" data-name="curve" data-title="curve" deg="0" data-sw="2" data-grad="0" data-group="0" data-edit="1" filter="none" d="M341 660 L331 671 L330 682 L326 693 L317 704 L328 702 L339 701 L350 702 L361 696 L365 685 L365 674 L361 663 L350 663 L339 664 " data-centerx="341" data-centery="682"></path></g><g id="settings" visibility="hidden" data-dn0="primalDraw" data-dn1="#FAFAFA" data-dn2="#D2D2D2" data-dn3="18" data-dn4="#000000" data-dn5="#4D4D4D" data-dn6="1" data-dn7="1" data-dn8="2" data-dn9="round" data-dn10="round" data-dn11="none" data-dn12="none" data-dn13="none" data-dn14="evenodd" data-dn15="10" data-dn16="0" data-dn17="1000" data-dn18="700" data-dn19="10" data-dn20="0" data-dn21="1" data-dn22="1" data-dn23="21" data-dn24="path2,path6,path7,path9,path12,path15,path16,path17,path19,path20" data-dn25="2" data-dn26="url(#linear0)" data-dn27="url(#linear1)" data-dn28="url(#radial0)" data-dn29="url(#radial1)" data-dn30="#FF8000" data-dn31="#FFFF00" data-dn32="#000000" data-dn33="1" data-dn34="1" data-dn35="10" data-dn36="" data-dn37="0" data-dn38="72"></g></svg>